<svg width="22" height="22" viewBox="0 0 22 22" fill="none" xmlns="http://www.w3.org/2000/svg">
<path d="M6.4 12.2001C6.84043 11.8697 7.46468 11.9577 7.79686 12.3959L7.8015 12.4018C7.80745 12.4093 7.81876 12.4234 7.83531 12.4431C7.86846 12.4826 7.92219 12.5442 7.99542 12.6207C8.14272 12.7744 8.36407 12.9829 8.65067 13.1913C9.22773 13.611 10.0255 14.0001 11 14.0001C11.9745 14.0001 12.7723 13.611 13.3493 13.1913C13.6359 12.9829 13.8573 12.7744 14.0046 12.6207C14.0778 12.5442 14.1315 12.4826 14.1647 12.4431C14.1812 12.4234 14.1925 12.4093 14.1985 12.4018L14.2031 12.3959C14.5353 11.9577 15.1596 11.8697 15.6 12.2001C16.0418 12.5314 16.1314 13.1582 15.8 13.6001L15 13.0001C15.8 13.6001 15.8002 13.5997 15.8 13.6001L15.799 13.6014L15.7978 13.6029L15.7951 13.6066L15.7879 13.616L15.7666 13.6432C15.7493 13.665 15.726 13.6939 15.6966 13.7289C15.638 13.7987 15.555 13.8934 15.4485 14.0045C15.2365 14.2258 14.9266 14.5172 14.5257 14.8088C13.7277 15.3891 12.5255 16.0001 11 16.0001C9.47447 16.0001 8.27227 15.3891 7.47433 14.8088C7.07343 14.5172 6.76352 14.2258 6.55145 14.0045C6.445 13.8934 6.362 13.7987 6.30336 13.7289C6.274 13.6939 6.25065 13.665 6.23341 13.6432L6.21211 13.616L6.2049 13.6066L6.20216 13.6029L6.20101 13.6014C6.20076 13.6011 6.2 13.6001 7 13.0001L6.2 13.6001C5.86863 13.1582 5.95817 12.5314 6.4 12.2001Z" fill="#191919" fill-opacity="0.6"/>
<path d="M7 8C7 7.44772 7.44772 7 8 7H8.01C8.56229 7 9.01 7.44772 9.01 8C9.01 8.55229 8.56229 9 8.01 9H8C7.44772 9 7 8.55229 7 8Z" fill="#191919" fill-opacity="0.6"/>
<path d="M14 7C13.4477 7 13 7.44772 13 8C13 8.55229 13.4477 9 14 9H14.01C14.5623 9 15.01 8.55229 15.01 8C15.01 7.44772 14.5623 7 14.01 7H14Z" fill="#191919" fill-opacity="0.6"/>
<path fill-rule="evenodd" clip-rule="evenodd" d="M11 0C4.92487 0 0 4.92487 0 11C0 17.0751 4.92487 22 11 22C17.0751 22 22 17.0751 22 11C22 4.92487 17.0751 0 11 0ZM2 11C2 6.02944 6.02944 2 11 2C15.9706 2 20 6.02944 20 11C20 15.9706 15.9706 20 11 20C6.02944 20 2 15.9706 2 11Z" fill="#191919" fill-opacity="0.6"/>
</svg>
