<svg width="22" height="22" viewBox="0 0 22 22" fill="none" xmlns="http://www.w3.org/2000/svg">
<path d="M21.6368 11.1947L12.3163 20.0531C10.8824 21.4159 9.03879 22 7.19519 22C5.35158 22 3.50797 21.3186 2.07406 20.0531C-0.691352 17.4248 -0.691352 13.0442 2.07406 10.4159L11.4969 1.46018C12.4187 0.584071 13.7502 0 15.0817 0C16.4132 0 17.7447 0.486726 18.6665 1.46018C20.715 3.40708 20.715 6.42478 18.6665 8.37168L9.24364 17.3274C8.01457 18.4956 6.06854 18.4956 4.94189 17.3274C4.42978 16.8407 4.12251 16.0619 4.12251 15.2832C4.12251 14.5044 4.42978 13.7257 5.04431 13.2389L13.7502 4.9646C14.1599 4.57522 14.7745 4.57522 15.1841 4.9646C15.5938 5.35398 15.5938 5.93805 15.1841 6.32743L6.47823 14.6018C6.27338 14.7965 6.17096 14.9912 6.17096 15.2832C6.17096 15.5752 6.27338 15.7699 6.47823 15.9646C6.88792 16.354 7.50245 16.354 7.91214 15.9646L17.335 7.00885C18.5641 5.84071 18.5641 3.99115 17.335 2.92035C16.2084 1.84956 14.1599 1.84956 13.0333 2.92035L3.6104 11.8761C1.56194 13.823 1.56194 16.8407 3.6104 18.7876C5.65885 20.7345 8.83395 20.7345 10.8824 18.7876L20.3053 9.83186C20.715 9.44248 21.3295 9.44248 21.7392 9.83186C22.1489 10.2212 22.0465 10.8053 21.6368 11.1947Z" fill="#191919" fill-opacity="0.6"/>
</svg>
