<svg width="14" height="15" viewBox="0 0 14 15" fill="none" xmlns="http://www.w3.org/2000/svg">
<path fill-rule="evenodd" clip-rule="evenodd" d="M10.4667 10.0333L13.4667 13.0333C13.7334 13.3 13.7334 13.7 13.4667 13.9667C13.3334 14.1 13.1334 14.1667 13 14.1667C12.8667 14.1667 12.6667 14.1 12.5334 13.9667L9.53337 10.9667C8.53337 11.7 7.33337 12.1667 6.00004 12.1667C2.86671 12.1667 0.333374 9.63334 0.333374 6.5C0.333374 3.36667 2.86671 0.833336 6.00004 0.833336C9.13337 0.833336 11.6667 3.36667 11.6667 6.5C11.6667 7.83334 11.2 9.1 10.4667 10.0333ZM6.00004 2.16667C3.60004 2.16667 1.66671 4.1 1.66671 6.5C1.66671 8.9 3.60004 10.8333 6.00004 10.8333C7.20004 10.8333 8.26671 10.3667 9.06671 9.56667C9.86671 8.76667 10.3334 7.7 10.3334 6.5C10.3334 4.1 8.40004 2.16667 6.00004 2.16667Z" fill="#191919" fill-opacity="0.6"/>
</svg>
