<svg width="12" height="11" viewBox="0 0 12 11" fill="none" xmlns="http://www.w3.org/2000/svg">
<path d="M11.4813 4.45609C11.4315 4.25642 11.282 4.15658 11.0827 4.10666L7.89354 3.65739L6.44847 0.762075C6.29898 0.412642 5.70102 0.412642 5.55153 0.762075L4.10646 3.60747L0.967157 4.10666C0.767837 4.10666 0.618347 4.25642 0.518686 4.45609C0.468856 4.65577 0.518686 4.85544 0.668177 4.95528L2.96036 7.20164L2.41223 10.3965C2.3624 10.5961 2.46206 10.7958 2.61155 10.8957C2.76104 10.9955 2.96036 11.0454 3.15968 10.9456L6 9.44801L8.84032 10.9456C8.93998 10.9456 8.98981 10.9456 9.08947 10.9456C9.18913 10.9456 9.28879 10.8957 9.38845 10.8457C9.53794 10.7459 9.6376 10.5462 9.58777 10.3465L9.03964 7.15173L11.3318 4.90536C11.4813 4.80553 11.5311 4.60585 11.4813 4.45609Z" fill="#191919" fill-opacity="0.4"/>
</svg>
